<svg xmlns="http://www.w3.org/2000/svg" viewBox="0 0 512 512" width="32" height="32">
  <!-- SNES Controller Silhouette -->
  <path d="M 140 184 L 372 184 A 72 72 0 0 1 444 256 A 72 72 0 0 1 372 328 L 320 328 C 280 294 232 294 192 328 L 140 328 A 72 72 0 0 1 68 256 A 72 72 0 0 1 140 184 Z" fill="none" stroke="#A855F7" stroke-width="32" stroke-linejoin="round"/>
  
  <!-- D-pad -->
  <path d="M 140 220 L 140 292 M 104 256 L 176 256" stroke="#A855F7" stroke-width="24" stroke-linecap="round" />
  
  <!-- Action Buttons -->
  <circle cx="372" cy="220" r="16" fill="#A855F7"/>
  <circle cx="372" cy="292" r="16" fill="#A855F7"/>
  <circle cx="336" cy="256" r="16" fill="#A855F7"/>
  <circle cx="408" cy="256" r="16" fill="#A855F7"/>
  
  <!-- Initials LB -->
  <text x="256" y="264" font-family="'Inter', system-ui, sans-serif" font-weight="900" font-size="80" fill="#A855F7" text-anchor="middle" dominant-baseline="middle" letter-spacing="4">LB</text>
</svg>